<svg width="64" height="55" viewBox="0 0 64 55" fill="none" xmlns="http://www.w3.org/2000/svg">
<g clip-path="url(#clip0)">
<path d="M24.897 35.3841C25.312 35.3765 25.644 35.0446 25.6364 34.6296C25.6289 34.2147 25.2969 33.8827 24.882 33.8903C24.467 33.8978 24.135 34.2298 24.1426 34.6447C24.1426 34.8409 24.2256 35.0295 24.3614 35.1653C24.5047 35.3011 24.6933 35.3841 24.897 35.3841Z" fill="#003974"/>
<path d="M51.303 35.3841H55.0753C55.4903 35.3841 55.8298 35.0446 55.8298 34.6296C55.8298 34.2147 55.4903 33.8752 55.0753 33.8752H51.303C50.8881 33.8752 50.5486 34.2147 50.5486 34.6296C50.5486 35.0446 50.8805 35.3841 51.303 35.3841Z" fill="#003974"/>
<path d="M57.3388 35.3841C57.7538 35.3765 58.0857 35.0446 58.0782 34.6296C58.0706 34.2147 57.7387 33.8827 57.3237 33.8903C56.9088 33.8978 56.5768 34.2298 56.5844 34.6447C56.5844 34.8409 56.6673 35.0295 56.8031 35.1653C56.9465 35.3011 57.1351 35.3841 57.3388 35.3841Z" fill="#003974"/>
<path d="M62.62 34.6296H60.3566V33.1207C60.3566 31.8683 59.3456 30.8574 58.0932 30.8574H55.8072C56.3052 30.2085 56.5768 29.4163 56.5843 28.594C56.5843 26.5117 54.8943 24.8217 52.812 24.8217C50.7297 24.8217 49.0397 26.5117 49.0397 28.594C49.0397 29.4163 49.3113 30.2085 49.8168 30.8574H47.395C47.4855 30.6159 47.5308 30.3594 47.5308 30.1029V27.0851C47.5308 25.8327 46.5198 24.8217 45.2674 24.8217H37.7229C37.6927 24.8217 37.6625 24.8217 37.6323 24.8292L35.3689 25.0933L24.8443 26.3306C23.1995 26.3532 21.8717 27.6962 21.8717 29.3484C21.8717 29.8766 22.0226 30.3971 22.2942 30.8574H20.3703C19.1179 30.8574 18.1069 31.8683 18.1069 33.1207V34.6296H15.8436C15.4286 34.6296 15.0891 34.9691 15.0891 35.3841V37.6475C15.0891 38.0624 15.4286 38.4019 15.8436 38.4019H36.2139V49.7188H33.1961C31.9437 49.7188 30.9327 50.7298 30.9327 51.9822V54.2456C30.9327 54.6605 31.2722 55 31.6872 55H46.7764C47.1913 55 47.5308 54.6605 47.5308 54.2456V51.9822C47.5308 50.7298 46.5198 49.7188 45.2674 49.7188H42.2496V46.5953C43.8566 46.1879 44.8299 44.5508 44.4224 42.9438C44.1508 41.88 43.3209 41.0425 42.2496 40.7709V38.4019H62.62C63.0349 38.4019 63.3744 38.0624 63.3744 37.6475V35.3841C63.3744 34.9691 63.0349 34.6296 62.62 34.6296ZM50.5486 28.594C50.5486 27.3416 51.5596 26.3306 52.812 26.3306C54.0644 26.3306 55.0754 27.3416 55.0754 28.594C55.0754 29.8464 54.0644 30.8574 52.812 30.8574C51.5596 30.8574 50.5486 29.8464 50.5486 28.594ZM37.7606 26.3306H42.2496V27.8395H36.2139V26.5117L37.7606 26.3306ZM23.3882 29.3484C23.3882 28.5185 24.0672 27.8395 24.8971 27.8395C24.9272 27.8395 24.9574 27.8395 24.9876 27.832L34.705 26.6927V28.594C34.705 29.0089 35.0445 29.3484 35.4595 29.3484H43.0041C43.419 29.3484 43.7585 29.0089 43.7585 28.594V26.3306H45.2674C45.6824 26.3306 46.0219 26.6701 46.0219 27.0851V30.1029C46.0219 30.5178 45.6824 30.8574 45.2674 30.8574H24.8971C24.0596 30.8574 23.3882 30.1783 23.3882 29.3484ZM16.598 36.893V36.1386H18.1069C18.1069 36.2819 18.122 36.4252 18.1522 36.5611C18.1598 36.6063 18.1748 36.6516 18.1899 36.6893C18.205 36.7572 18.2201 36.8251 18.2427 36.8855H16.598V36.893ZM19.6159 36.1386V35.3841H22.6337C23.0486 35.3841 23.3882 35.0446 23.3882 34.6296C23.3882 34.2147 23.0486 33.8752 22.6337 33.8752H19.6159V33.1207C19.6159 32.7058 19.9554 32.3663 20.3703 32.3663H58.0932C58.5082 32.3663 58.8477 32.7058 58.8477 33.1207V36.1386C58.8477 36.5535 58.5082 36.893 58.0932 36.893H20.3703C19.9478 36.893 19.6159 36.5535 19.6159 36.1386ZM46.0219 51.9822V53.4911H32.4417V51.9822C32.4417 51.5672 32.7812 51.2277 33.1961 51.2277H45.2674C45.6824 51.2277 46.0219 51.5672 46.0219 51.9822ZM43.0041 43.6831C43.0041 44.513 42.3251 45.1921 41.4951 45.1921C40.6652 45.1921 39.9862 44.513 39.9862 43.6831C39.9862 42.8532 40.6652 42.1742 41.4951 42.1742C42.3251 42.1742 43.0041 42.8532 43.0041 43.6831ZM40.7407 40.7634C40.6351 40.7936 40.537 40.8237 40.4389 40.869C40.3936 40.8841 40.3408 40.8992 40.2956 40.9218C40.1296 40.9897 39.9711 41.0803 39.8202 41.1783C39.7901 41.201 39.7599 41.2236 39.7297 41.2538C39.6165 41.3368 39.5034 41.4273 39.4053 41.5178C39.36 41.5631 39.3223 41.6084 39.277 41.6612C39.1941 41.7442 39.1186 41.8347 39.0507 41.9328C39.013 41.9856 38.9753 42.046 38.9375 42.1063C38.8772 42.2044 38.8244 42.3025 38.7716 42.4081C38.7414 42.4685 38.7112 42.5288 38.6886 42.5967C38.6433 42.7099 38.6056 42.8306 38.5754 42.9513C38.5603 43.0117 38.5452 43.0645 38.5301 43.1248C38.4547 43.4945 38.4547 43.8868 38.5301 44.2565C38.5377 44.3169 38.5603 44.3697 38.5754 44.43C38.6056 44.5508 38.6433 44.6715 38.6886 44.7846C38.7112 44.845 38.7414 44.9129 38.7716 44.9733C38.8168 45.0789 38.8772 45.177 38.9375 45.275C38.9753 45.3354 39.013 45.3882 39.0507 45.4486C39.1186 45.5466 39.1941 45.6296 39.277 45.7202C39.3223 45.7654 39.36 45.8183 39.4053 45.8635C39.5034 45.9616 39.6165 46.0521 39.7297 46.1276C39.7599 46.1502 39.7901 46.1804 39.8202 46.203C39.9711 46.3011 40.1296 46.3916 40.2956 46.4595C40.3408 46.4822 40.3936 46.4897 40.4389 46.5124C40.537 46.5501 40.6351 46.5878 40.7407 46.618V49.7263H37.7229V38.4095H40.7407V40.7634ZM61.8655 36.893H60.2283C60.251 36.8327 60.2661 36.7648 60.2812 36.6969C60.2887 36.6516 60.3038 36.6139 60.3113 36.5686C60.3415 36.4253 60.3566 36.2894 60.3566 36.1461H61.8655V36.893Z" fill="#003974"/>
<path d="M40.9595 43.1475C40.6653 43.4417 40.6653 43.9246 40.967 44.2113C41.2613 44.5055 41.7441 44.5055 42.0308 44.2037C42.3251 43.9095 42.3251 43.4342 42.0308 43.1399C41.7215 42.8683 41.2613 42.8683 40.9595 43.1475Z" fill="#003974"/>
<path d="M56.5315 13.5048C56.4712 13.5048 56.4033 13.5048 56.3429 13.5124C55.928 13.5652 55.6337 13.9424 55.6866 14.3574C55.7394 14.7723 56.1166 15.0666 56.5315 15.0137C57.1049 15.1194 57.6255 15.4061 58.0103 15.8436C58.38 16.1907 58.6516 16.6283 58.81 17.1111C58.6365 17.4884 58.8025 17.941 59.1797 18.1146C59.2778 18.1598 59.3834 18.1825 59.4966 18.1825C59.5569 18.1825 59.6248 18.1825 59.6852 18.1749C60.0247 18.1372 60.2963 17.8731 60.3416 17.5336C60.334 16.4774 59.8738 15.474 59.0816 14.7799C58.4177 14.0556 57.5123 13.6029 56.5315 13.5048Z" fill="#003974"/>
<path d="M62.62 6.71469C62.205 6.71469 61.8655 7.0542 61.8655 7.46915V10.9321L60.1227 12.6749C59.1193 11.8073 57.8593 11.3018 56.539 11.2414C55.7016 11.2113 54.8868 11.5281 54.2908 12.1091C53.5137 12.9541 53.2194 14.131 53.5137 15.2401C53.8004 16.4849 54.4416 17.6242 55.3545 18.5144C56.441 19.6687 57.9272 20.3628 59.5041 20.4458C60.3415 20.476 61.1563 20.1591 61.7523 19.5782C62.5294 18.7332 62.8237 17.5563 62.5294 16.4472C62.3031 15.4513 61.8429 14.5233 61.1865 13.7462L63.1556 11.7771C63.2914 11.6338 63.3744 11.4376 63.3744 11.2414V7.46915C63.3744 7.0542 63.0349 6.71469 62.62 6.71469ZM60.681 18.5069C60.3566 18.8011 59.9341 18.952 59.4965 18.9294C58.3196 18.8464 57.2105 18.3107 56.4108 17.4355C55.7016 16.7565 55.2036 15.8889 54.9773 14.9307C54.8038 14.3196 54.9396 13.6633 55.3394 13.1653C55.6639 12.8711 56.0864 12.7202 56.5239 12.7428C57.7009 12.8258 58.81 13.3615 59.6097 14.2366C60.3189 14.9157 60.8168 15.7833 61.0432 16.7414C61.2167 17.3601 61.0809 18.0165 60.681 18.5069Z" fill="#003974"/>
<path d="M14.3347 52.7366H13.5802V18.454C13.9348 18.1372 14.2366 17.7675 14.478 17.3525H21.1248C22.3772 17.3525 23.3882 16.3416 23.3882 15.0892C23.3882 13.8368 22.3772 12.8258 21.1248 12.8258H20.3703V8.84224C20.8381 8.57818 21.1248 8.08024 21.1248 7.54458C21.1248 7.41632 21.1022 7.28806 21.0645 7.1598L22.6941 5.53017L26.2702 9.1063C26.4136 9.24965 26.6022 9.3251 26.8059 9.3251C26.8436 9.3251 26.8813 9.3251 26.919 9.31755L28.4053 9.09876L34.9238 15.6173C35.2256 15.904 35.7009 15.8964 35.9876 15.6022C36.2668 15.308 36.2668 14.8477 35.9876 14.5535L29.4691 8.03497L29.6879 6.54869C29.7256 6.31481 29.6426 6.07338 29.4767 5.9074L23.7956 0.218787C23.5014 -0.0754518 23.026 -0.0754518 22.7318 0.218787L22.1961 0.754452L21.6605 0.218787C21.3587 -0.0679072 20.8834 -0.0603626 20.5967 0.233876C20.3175 0.528115 20.3175 0.988334 20.5967 1.28257L21.1248 1.81824L20.5967 2.3539C20.3024 2.64814 20.3024 3.12345 20.5967 3.41769L21.6378 4.45884L20.0082 6.08847C19.88 6.05829 19.7517 6.03566 19.6159 6.03566C18.786 6.03566 18.107 6.70713 18.107 7.53703C18.107 8.0727 18.3937 8.57818 18.8614 8.84224V12.8258H14.478C13.2332 10.6605 10.4643 9.91357 8.30656 11.1584C6.14881 12.4033 5.39436 15.1721 6.63921 17.3299C6.88064 17.7524 7.18997 18.1296 7.54456 18.4465V21.8793C6.71466 21.8793 6.03564 22.5583 6.03564 23.3882V27.9149C6.03564 28.7448 6.71466 29.4239 7.54456 29.4239V52.7366H6.7901C6.37515 52.7366 6.03564 53.0761 6.03564 53.4911C6.03564 53.906 6.37515 54.2455 6.7901 54.2455H14.3347C14.7496 54.2455 15.0891 53.906 15.0891 53.4911C15.0891 53.0761 14.7572 52.7366 14.3347 52.7366ZM23.2599 1.81824L28.1413 6.69958L28.0055 7.62757L27.0775 7.76337L22.1961 2.88202L23.2599 1.81824ZM21.1248 14.3347C21.5398 14.3347 21.8793 14.6742 21.8793 15.0892C21.8793 15.5041 21.5398 15.8436 21.1248 15.8436H15.0288C15.0363 15.821 15.0288 15.7908 15.0363 15.7682C15.1118 15.323 15.1118 14.8628 15.0363 14.4177C15.0288 14.3875 15.0363 14.3649 15.0288 14.3347H21.1248ZM10.5624 12.0713C11.762 12.0713 12.8484 12.7805 13.3313 13.8745C14.0027 15.3985 13.3086 17.179 11.7771 17.8505C11.0905 18.1523 10.321 18.1824 9.61178 17.9486C9.46088 17.8957 9.30999 17.8354 9.16665 17.7599C9.0233 17.6845 8.87995 17.594 8.75169 17.4959C7.4163 16.4924 7.1447 14.6063 8.14813 13.2709C8.72152 12.5165 9.61178 12.0713 10.5624 12.0713ZM7.54456 23.3882H9.05348V27.9149H7.54456V23.3882ZM9.05348 52.7366V29.4239C9.88338 29.4239 10.5624 28.7448 10.5624 27.9149V23.3882C10.5624 22.5583 9.88338 21.8793 9.05348 21.8793V19.3594C9.06102 19.3594 9.07611 19.3669 9.08366 19.3669C9.2949 19.4348 9.5137 19.4952 9.73249 19.5329C9.75512 19.5329 9.77021 19.5405 9.79285 19.548C10.2983 19.6385 10.8189 19.6385 11.3244 19.548C11.347 19.548 11.3621 19.5405 11.3848 19.5329C11.6035 19.4952 11.8223 19.4348 12.0336 19.3669C12.0411 19.3669 12.0562 19.3594 12.0638 19.3594V52.7366H9.05348Z" fill="#003974"/>
<path d="M10.5624 16.5981C11.3957 16.5981 12.0713 15.9225 12.0713 15.0891C12.0713 14.2558 11.3957 13.5802 10.5624 13.5802C9.72903 13.5802 9.05347 14.2558 9.05347 15.0891C9.05347 15.9225 9.72903 16.5981 10.5624 16.5981Z" fill="#003974"/>
</g>
<defs>
<clipPath id="clip0">
<rect width="63.3745" height="55" fill="white"/>
</clipPath>
</defs>
</svg>
